<?xml version="1.0" encoding="utf-8"?>
<!-- Generator: Adobe Illustrator 26.5.0, SVG Export Plug-In . SVG Version: 6.00 Build 0)  -->
<svg version="1.1" id="Camada_1" xmlns="http://www.w3.org/2000/svg" xmlns:xlink="http://www.w3.org/1999/xlink" x="0px" y="0px"
	 viewBox="0 0 84 38" style="enable-background:new 0 0 84 38;" xml:space="preserve">
<style type="text/css">
	.st0{fill:#1F294D;}
</style>
<g>
	<g>
		<path class="st0" d="M-33.4-61.1c0.5-1.1,0.8-2.5,1-4.1s0.3-3.2,0.3-5c0-4-0.5-7.4-1.5-10.1c-1.1-3.1-2.6-4.7-4.4-4.7l-10,0.2v9.8
			h9.2c0.5,0,1,0.5,1.3,1.4c0.3,0.7,0.5,1.7,0.5,3c0,1.1-0.2,2.1-0.5,2.9c-0.3,0.9-0.7,1.2-1.3,1.2h-3.8v10.6h3.8
			c0.6,0,1,0.4,1.3,1.2c0.3,0.7,0.4,1.7,0.4,2.9c0,1.2-0.2,2.2-0.5,3c-0.3,0.9-0.7,1.4-1.3,1.4H-48v10h10c1.9,0,3.4-1.5,4.4-4.6
			c1-2.7,1.5-6.1,1.5-10c0-1.7-0.1-3.5-0.3-5C-32.6-58.5-32.9-59.9-33.4-61.1z"/>
		<path class="st0" d="M-54.9-81.9l-0.8,31.8c0,0.9-0.1,1.5-0.2,1.7c-0.1,0.2-0.3,0.5-0.6,0.7c-0.2,0-0.3,0-0.5-0.2
			c-0.2-0.4-0.3-1.1-0.5-2.2l-2.4-15c-0.7-4.6-1.1-5.6-2-7.4c-0.9-1.5-1.9-2.2-3.2-2.2c-1.4,0-2.7,1-3.8,2.9
			c-1.2,2.1-1.8,4.6-1.9,7.9l-1.1,13.7c0,0.7-0.1,1.4-0.2,1.7c-0.1,0.5-0.3,0.6-0.6,0.6c-0.2,0-0.3-0.2-0.5-0.6
			c-0.2-0.5-0.3-1.1-0.3-1.9l-2-18.7l-4.6,2.7l1.5,16.2c0.4,4.4,1.1,7.7,2,10c0.9,2.1,2,3.1,3.2,3.1c1.5,0,2.8-0.7,3.8-2.4
			c1.2-1.9,1.8-4.6,1.9-8.2l1.1-13.5c0-0.7,0.1-1.5,0.3-1.9c0.2-0.5,0.4-0.7,0.6-0.7c0.2,0,0.3,0.1,0.5,0.5c0.2,0.2,0.3,0.7,0.4,1.4
			l2.1,14.1c0.5,3.6,1.2,6.2,2,7.9c0.9,1.9,2,2.7,3.4,2.7c1.5,0,2.8-0.7,3.8-2.4c1.2-1.9,1.8-4.6,1.9-8.2l1-37L-54.9-81.9z"/>
	</g>
</g>
</svg>
