<?xml version="1.0" encoding="utf-8"?>
<!-- Generator: Adobe Illustrator 26.5.0, SVG Export Plug-In . SVG Version: 6.00 Build 0)  -->
<svg version="1.1" id="Camada_1" xmlns="http://www.w3.org/2000/svg" xmlns:xlink="http://www.w3.org/1999/xlink" x="0px" y="0px"
	 viewBox="0 0 84 38" style="enable-background:new 0 0 84 38;" xml:space="preserve">
<style type="text/css">
	.st0{fill:#FFFFFF;}
</style>
<path class="st0" d="M-107,6.3c0.8-0.9,1.4-2,1.8-3.3c0.4-1.3,0.6-2.6,0.6-4c0-3.2-0.9-5.9-2.7-8.1c-2-2.5-4.6-3.8-7.8-3.8
	l-17.5,0.2v7.9h16.2c0.9,0,1.7,0.4,2.3,1.1c0.5,0.6,0.8,1.4,0.8,2.4c0,0.9-0.3,1.7-0.8,2.3c-0.5,0.7-1.3,1-2.2,1h-6.7v8.5h6.7
	c1,0,1.7,0.3,2.3,1c0.5,0.6,0.7,1.4,0.7,2.3c0,1-0.3,1.8-0.8,2.4c-0.6,0.7-1.3,1.1-2.3,1.1h-16.2v8h17.5c3.3,0,5.9-1.2,7.8-3.7
	c1.7-2.2,2.6-4.9,2.6-8c0-1.4-0.2-2.8-0.6-4C-105.6,8.4-106.2,7.3-107,6.3z"/>
<path class="st0" d="M-144.8-10.4l-1.4,25.5c0,0.7-0.1,1.2-0.3,1.4c-0.2,0.2-0.5,0.4-1.1,0.6c-0.3,0-0.6,0-0.8-0.2
	c-0.3-0.3-0.5-0.9-0.8-1.8l-4.2-12c-1.3-3.7-1.9-4.5-3.6-5.9c-1.6-1.2-3.4-1.8-5.6-1.8c-2.5,0-4.8,0.8-6.7,2.3
	c-2.1,1.7-3.1,3.7-3.3,6.3l-2,11c0,0.6-0.2,1.1-0.4,1.4c-0.2,0.4-0.6,0.5-1.1,0.5c-0.3,0-0.5-0.2-0.8-0.5c-0.4-0.4-0.5-0.9-0.5-1.5
	l-3.5-15l-8,2.2l2.7,13c0.7,3.5,1.9,6.2,3.6,8c1.6,1.7,3.5,2.5,5.7,2.5c2.7,0,4.9-0.6,6.7-1.9c2.1-1.5,3.2-3.7,3.4-6.6l2-10.8
	c0-0.6,0.2-1.2,0.5-1.5c0.3-0.4,0.7-0.6,1.1-0.6c0.3,0,0.6,0.1,0.9,0.4c0.3,0.2,0.5,0.6,0.7,1.1l3.7,11.3c0.9,2.9,2.1,5,3.5,6.3
	c1.6,1.5,3.5,2.2,5.9,2.2c2.7,0,4.9-0.6,6.7-1.9c2.1-1.5,3.2-3.7,3.4-6.6l1.7-29.7L-144.8-10.4z"/>
</svg>
