<?xml version="1.0" encoding="UTF-8"?>
<svg id="Camada_1" data-name="Camada 1" xmlns="http://www.w3.org/2000/svg" viewBox="0 0 68 48">
  <defs>
    <style>
      .cls-1 {
        fill: #1f294d;
      }
    </style>
  </defs>
  <path class="cls-1" d="M66.06,23.94c.65-1.12,1.13-2.49,1.45-4.11,.32-1.62,.48-3.24,.48-4.99,0-3.99-.73-7.36-2.18-10.1-1.61-3.12-3.71-4.74-6.29-4.74l-14.12,.25V10.1h13.07c.73,0,1.37,.5,1.86,1.37,.4,.75,.65,1.75,.65,2.99,0,1.12-.24,2.12-.65,2.87-.4,.87-1.05,1.25-1.77,1.25h-5.4v10.6h5.4c.81,0,1.37,.37,1.86,1.25,.4,.75,.56,1.75,.56,2.87,0,1.25-.24,2.24-.65,2.99-.48,.87-1.05,1.37-1.86,1.37h-13.07v9.97h14.12c2.66,0,4.76-1.5,6.29-4.61,1.37-2.74,2.1-6.11,2.1-9.97,0-1.75-.16-3.49-.48-4.99-.24-1.5-.73-2.87-1.37-4.11Z"/>
  <path class="cls-1" d="M35.57,3.12l-1.13,31.79c0,.87-.08,1.5-.24,1.75-.16,.25-.4,.5-.89,.75-.24,0-.48,0-.65-.25-.24-.37-.4-1.12-.65-2.24l-3.39-14.96c-1.05-4.61-1.53-5.61-2.9-7.36-1.29-1.5-2.74-2.24-4.52-2.24-2.02,0-3.87,1-5.4,2.87-1.69,2.12-2.5,4.61-2.66,7.85l-1.61,13.71c0,.75-.16,1.37-.32,1.75-.16,.5-.48,.62-.89,.62-.24,0-.4-.25-.65-.62-.32-.5-.4-1.12-.4-1.87L6.45,15.96,0,18.7l2.18,16.21c.56,4.36,1.53,7.73,2.9,9.97,1.29,2.12,2.82,3.12,4.6,3.12,2.18,0,3.95-.75,5.4-2.37,1.69-1.87,2.58-4.61,2.74-8.23l1.61-13.46c0-.75,.16-1.5,.4-1.87,.24-.5,.56-.75,.89-.75,.24,0,.48,.12,.73,.5,.24,.25,.4,.75,.56,1.37l2.98,14.09c.73,3.62,1.69,6.23,2.82,7.85,1.29,1.87,2.82,2.74,4.76,2.74,2.18,0,3.95-.75,5.4-2.37,1.69-1.87,2.58-4.61,2.74-8.23L42.11,.25l-6.53,2.87Z"/>
</svg>