<svg width="24" height="24" viewBox="0 0 24 24" fill="none" xmlns="http://www.w3.org/2000/svg">
<path d="M19.0711 4.92894L18.5407 5.45925L18.5407 5.45928L19.0711 4.92894ZM12 12H11.25C11.25 12.4142 11.5858 12.75 12 12.75V12ZM21.25 12C21.25 17.1086 17.1086 21.25 12 21.25V22.75C17.9371 22.75 22.75 17.9371 22.75 12H21.25ZM12 21.25C6.89137 21.25 2.75 17.1086 2.75 12H1.25C1.25 17.9371 6.06294 22.75 12 22.75V21.25ZM2.75 12C2.75 6.89137 6.89137 2.75 12 2.75V1.25C6.06294 1.25 1.25 6.06294 1.25 12H2.75ZM12 2.75C17.1086 2.75 21.25 6.89137 21.25 12H22.75C22.75 6.06294 17.9371 1.25 12 1.25V2.75ZM12 2.75C13.2147 2.75 14.4176 2.98926 15.5398 3.45411L16.1139 2.0683C14.8096 1.52806 13.4117 1.25 12 1.25V2.75ZM15.5398 3.45411C16.6621 3.91897 17.6818 4.60032 18.5407 5.45925L19.6014 4.39862C18.6032 3.40037 17.4181 2.60853 16.1139 2.0683L15.5398 3.45411ZM18.5407 5.45928C19.3997 6.31819 20.081 7.33791 20.5459 8.46017L21.9317 7.88614C21.3915 6.58189 20.5996 5.39681 19.6014 4.39859L18.5407 5.45928ZM20.5459 8.46017C21.0107 9.58241 21.25 10.7853 21.25 12H22.75C22.75 10.5883 22.472 9.19039 21.9317 7.88614L20.5459 8.46017ZM22 11.25H12V12.75H22V11.25ZM12.75 12V2H11.25V12H12.75Z" fill="#1C1B1E"/>
</svg>
