<svg width="22" height="20" viewBox="0 0 22 20" fill="none" xmlns="http://www.w3.org/2000/svg">
<path fill-rule="evenodd" clip-rule="evenodd" d="M14.6442 0.836983C16.1967 0.786902 17.9081 1.29081 19.3087 2.69144C20.7094 4.09209 21.2133 5.80352 21.1632 7.35602C21.1139 8.88303 20.5261 10.3129 19.6623 11.1767L12.5915 18.2475L12.0609 17.7175L11.5306 17.1871L18.6016 10.1161C19.152 9.56564 19.6248 8.52068 19.664 7.30766C19.7023 6.12012 19.3223 4.82635 18.2481 3.75211C17.1738 2.67787 15.88 2.2979 14.6925 2.3362C13.4795 2.37533 12.4345 2.84812 11.8841 3.39856L2.33816 12.9445C2.11711 13.1655 1.74449 13.7936 1.67087 14.6034C1.60127 15.369 1.79878 16.2942 2.69171 17.1871C3.58465 18.0801 4.50989 18.2776 5.27547 18.208C6.08529 18.1344 6.71333 17.7617 6.93437 17.5407L16.1267 8.34829C16.3264 8.14866 16.5369 7.71467 16.5717 7.19356C16.6051 6.69127 16.469 6.21567 16.1267 5.87346C15.7845 5.53124 15.3089 5.39503 14.8066 5.42851C14.2855 5.46326 13.8515 5.67378 13.6519 5.87343L6.93466 12.5907L6.40405 12.0606L5.87379 11.5302L12.5912 4.81281C12.5912 4.8128 12.5912 4.81281 12.5912 4.81281C13.0987 4.30532 13.9021 3.98548 14.7068 3.93184C15.5303 3.87694 16.4689 4.09432 17.1874 4.81278C17.1874 4.81279 17.1874 4.81277 17.1874 4.81278M17.1874 9.40897C17.1874 9.40897 17.1874 9.40896 17.1874 9.40897C17.6949 8.9015 18.0147 8.09804 18.0683 7.29334C18.1232 6.46983 17.9058 5.53122 17.1874 4.81278M17.1874 9.40897L7.99503 18.6014C7.50898 19.0874 6.54601 19.5987 5.41128 19.7018C4.23231 19.809 2.85944 19.4762 1.63106 18.2478C0.402673 17.0194 0.0698513 15.6466 0.17703 14.4676C0.280187 13.3329 0.791445 12.3699 1.2775 11.8838L10.8234 2.33789C11.6872 1.47412 13.1171 0.886241 14.6442 0.836983M6.40405 12.0606L5.87379 11.5302C5.5809 11.8231 5.58083 12.2981 5.87372 12.5909C6.16662 12.8838 6.64176 12.8836 6.93466 12.5907L6.40405 12.0606ZM11.5306 18.2478C11.2377 17.9549 11.2377 17.48 11.5306 17.1871L12.0609 17.7175L12.5915 18.2475C12.2986 18.5404 11.8235 18.5407 11.5306 18.2478Z" fill="#212121"/>
</svg>
